<svg xmlns="http://www.w3.org/2000/svg" viewBox="0 0 62.92 62.91"><defs><style>.cls-1{fill:#ffe11f;}</style></defs><title>Asset 1</title><g id="Layer_2" data-name="Layer 2"><g id="Layer_1-2" data-name="Layer 1"><path class="cls-1" d="M23.31,1,28.5,3.26,33.11,0l4.24,3.73,5.4-1.68,2.88,4.86L51.28,7l1.25,5.51,5.35,1.81-.52,5.63,4.53,3.38-2.24,5.18,3.27,4.62-3.73,4.24,1.68,5.4L56,45.63l-.07,5.65-5.51,1.25-1.82,5.35L43,57.36l-3.38,4.53-5.19-2.24-4.61,3.26-4.25-3.72-5.39,1.68L17.28,56l-5.65-.07-1.24-5.51L5,48.61,5.56,43,1,39.61l2.23-5.19L0,29.81l3.73-4.25L2,20.17l4.86-2.89L7,11.63l5.51-1.24L14.3,5l5.63.52Z"/></g></g></svg>